<svg width="361" height="363" viewBox="0 0 361 363" fill="none" xmlns="http://www.w3.org/2000/svg">
<path d="M360.5 329.5L333 314.5C326.833 302.333 310.4 280 294 288C277.6 296 270.5 299.333 269 300L195 343C184.5 349.833 152.3 363.2 107.5 362C51.5 360.5 31.5 333.5 29 333C27 332.6 10.8333 320.5 2.99998 314.5C0.166646 309.833 -2.50002 298.6 9.49998 291C21.5 283.4 32.1667 279.833 36 279C40.3333 275.5 46.4 266.1 36 256.5C25.6 246.9 36 230.833 42.5 224L61 213L133.5 176.5C148.833 167.667 171.9 146.7 141.5 133.5C111.1 120.3 97.5 109.667 94.5 106L45.5 75C39.5 70.3333 33.2 59.3 56 52.5C78.8 45.7 78.5 45 75.5 45.5C80 44.1667 85.7 38.3 72.5 25.5C56 9.49999 92.5 -3.50001 101.5 2.99999C108.7 8.19999 116.833 17.5 120 21.5" stroke="black"/>
</svg>
